<svg width="30" height="30" viewBox="0 0 30 30" fill="none" xmlns="http://www.w3.org/2000/svg">
<rect width="30" height="30" rx="4" fill="#EBEDFC"/>
<path d="M8.625 19.5C8.625 18.4394 8.625 17.909 8.95451 17.5795C9.28401 17.25 9.81434 17.25 10.875 17.25H11.25C11.9571 17.25 12.3107 17.25 12.5303 17.4697C12.75 17.6894 12.75 18.0429 12.75 18.75V22.5H8.625L8.625 19.5Z" stroke="#3549E5" stroke-linecap="round" stroke-linejoin="round"/>
<path d="M17.25 20.25C17.25 19.5429 17.25 19.1894 17.4697 18.9697C17.6894 18.75 18.0429 18.75 18.75 18.75H19.125C20.1856 18.75 20.716 18.75 21.0455 19.0795C21.375 19.409 21.375 19.9394 21.375 21V22.5H17.25V20.25Z" stroke="#3549E5" stroke-linecap="round" stroke-linejoin="round"/>
<path d="M7.5 22.5L22.5 22.5" stroke="#3549E5" stroke-linecap="round" stroke-linejoin="round"/>
<path d="M12.75 18C12.75 16.9394 12.75 16.409 13.0795 16.0795C13.409 15.75 13.9394 15.75 15 15.75C16.0606 15.75 16.591 15.75 16.9205 16.0795C17.25 16.409 17.25 16.9394 17.25 18V22.5H12.75L12.75 18Z" stroke="#3549E5" stroke-linecap="round" stroke-linejoin="round"/>
<path d="M15.5183 7.93325L16.0462 8.99786C16.1182 9.14606 16.3102 9.28821 16.4722 9.31543L17.4291 9.47573C18.041 9.57856 18.185 10.0262 17.744 10.4678L17.0001 11.2178C16.8742 11.3448 16.8052 11.5898 16.8442 11.7652L17.0571 12.6938C17.2251 13.4287 16.8382 13.713 16.1932 13.3289L15.2963 12.7936C15.1343 12.6968 14.8674 12.6968 14.7024 12.7936L13.8055 13.3289C13.1635 13.713 12.7736 13.4257 12.9416 12.6938L13.1545 11.7652C13.1935 11.5898 13.1246 11.3448 12.9986 11.2178L12.2547 10.4678C11.8167 10.0262 11.9577 9.57856 12.5696 9.47573L13.5265 9.31543C13.6855 9.28821 13.8775 9.14606 13.9495 8.99786L14.4774 7.93325C14.7654 7.35558 15.2333 7.35558 15.5183 7.93325Z" stroke="#3549E5" stroke-linecap="round" stroke-linejoin="round"/>
</svg>
