<svg width="16" height="16" viewBox="0 0 16 16" fill="none" xmlns="http://www.w3.org/2000/svg">
<path d="M13.8494 12C14.3489 12 14.7462 11.6856 15.103 11.2461C15.8333 10.3463 14.6342 9.62723 14.1769 9.27507C13.712 8.91708 13.1929 8.71428 12.6667 8.66667M12 7.33333C12.9205 7.33333 13.6667 6.58714 13.6667 5.66667C13.6667 4.74619 12.9205 4 12 4" stroke="#5C5C5F" stroke-linecap="round"/>
<path d="M2.1506 12C1.65106 12 1.25374 11.6856 0.89699 11.2461C0.166685 10.3463 1.36574 9.62723 1.82306 9.27507C2.28794 8.91708 2.80701 8.71428 3.33329 8.66667M3.66663 7.33333C2.74615 7.33333 1.99996 6.58714 1.99996 5.66667C1.99996 4.74619 2.74615 4 3.66663 4" stroke="#5C5C5F" stroke-linecap="round"/>
<path d="M5.38916 10.0748C4.70798 10.496 2.92195 11.356 4.00976 12.4323C4.54115 12.958 5.13297 13.334 5.87704 13.334H10.1229C10.8669 13.334 11.4588 12.958 11.9902 12.4323C13.078 11.356 11.2919 10.496 10.6108 10.0748C9.01339 9.08705 6.98653 9.08705 5.38916 10.0748Z" stroke="#5C5C5F" stroke-linecap="round" stroke-linejoin="round"/>
<path d="M10.3333 5.00033C10.3333 6.28899 9.28862 7.33366 7.99996 7.33366C6.71129 7.33366 5.66663 6.28899 5.66663 5.00033C5.66663 3.71166 6.71129 2.66699 7.99996 2.66699C9.28862 2.66699 10.3333 3.71166 10.3333 5.00033Z" stroke="#5C5C5F"/>
</svg>
