<svg width="16" height="16" viewBox="0 0 16 16" fill="none" xmlns="http://www.w3.org/2000/svg">
<g clip-path="url(#clip0_660_23642)">
<path d="M1.33337 3.99967C1.33337 2.7426 1.33337 2.11406 1.7239 1.72353C2.11442 1.33301 2.74296 1.33301 4.00004 1.33301C5.25712 1.33301 5.88566 1.33301 6.27618 1.72353C6.66671 2.11406 6.66671 2.7426 6.66671 3.99967V5.33301C6.66671 6.59009 6.66671 7.21863 6.27618 7.60915C5.88566 7.99968 5.25712 7.99968 4.00004 7.99968C2.74296 7.99968 2.11442 7.99968 1.7239 7.60915C1.33337 7.21863 1.33337 6.59009 1.33337 5.33301V3.99967Z" stroke="#5C5C5F"/>
<path d="M1.33337 12.666C1.33337 12.0448 1.33337 11.7341 1.43487 11.4891C1.57019 11.1624 1.82976 10.9028 2.15646 10.7675C2.40149 10.666 2.71212 10.666 3.33337 10.666H4.66671C5.28796 10.666 5.59859 10.666 5.84362 10.7675C6.17032 10.9028 6.42989 11.1624 6.56521 11.4891C6.66671 11.7341 6.66671 12.0448 6.66671 12.666C6.66671 13.2873 6.66671 13.5979 6.56521 13.8429C6.42989 14.1696 6.17032 14.4292 5.84362 14.5645C5.59859 14.666 5.28796 14.666 4.66671 14.666H3.33337C2.71212 14.666 2.40149 14.666 2.15646 14.5645C1.82976 14.4292 1.57019 14.1696 1.43487 13.8429C1.33337 13.5979 1.33337 13.2873 1.33337 12.666Z" stroke="#5C5C5F"/>
<path d="M9.33337 10.6667C9.33337 9.40959 9.33337 8.78105 9.7239 8.39052C10.1144 8 10.743 8 12 8C13.2571 8 13.8857 8 14.2762 8.39052C14.6667 8.78105 14.6667 9.40959 14.6667 10.6667V12C14.6667 13.2571 14.6667 13.8856 14.2762 14.2761C13.8857 14.6667 13.2571 14.6667 12 14.6667C10.743 14.6667 10.1144 14.6667 9.7239 14.2761C9.33337 13.8856 9.33337 13.2571 9.33337 12V10.6667Z" stroke="#5C5C5F"/>
<path d="M9.33337 3.33301C9.33337 2.71175 9.33337 2.40112 9.43487 2.1561C9.57019 1.82939 9.82976 1.56983 10.1565 1.4345C10.4015 1.33301 10.7121 1.33301 11.3334 1.33301H12.6667C13.288 1.33301 13.5986 1.33301 13.8436 1.4345C14.1703 1.56983 14.4299 1.82939 14.5652 2.1561C14.6667 2.40112 14.6667 2.71175 14.6667 3.33301C14.6667 3.95426 14.6667 4.26489 14.5652 4.50992C14.4299 4.83662 14.1703 5.09619 13.8436 5.23151C13.5986 5.33301 13.288 5.33301 12.6667 5.33301H11.3334C10.7121 5.33301 10.4015 5.33301 10.1565 5.23151C9.82976 5.09619 9.57019 4.83662 9.43487 4.50992C9.33337 4.26489 9.33337 3.95426 9.33337 3.33301Z" stroke="#5C5C5F"/>
</g>
<defs>
<clipPath id="clip0_660_23642">
<rect width="16" height="16" fill="white"/>
</clipPath>
</defs>
</svg>
