<svg width="16" height="16" viewBox="0 0 16 16" fill="none" xmlns="http://www.w3.org/2000/svg">
<path d="M9.0785 14.2443C8.78937 14.515 8.40293 14.6663 8.00075 14.6663C7.59856 14.6663 7.21212 14.515 6.92299 14.2443C4.27535 11.7503 0.727175 8.96429 2.45751 4.91945C3.39309 2.73244 5.6389 1.33301 8.00075 1.33301C10.3626 1.33301 12.6084 2.73245 13.544 4.91945C15.2721 8.95919 11.7327 11.7589 9.0785 14.2443Z" stroke="#5C5C5F"/>
<path d="M10.3333 7.33333C10.3333 8.622 9.28862 9.66667 7.99996 9.66667C6.71129 9.66667 5.66663 8.622 5.66663 7.33333C5.66663 6.04467 6.71129 5 7.99996 5C9.28862 5 10.3333 6.04467 10.3333 7.33333Z" stroke="#5C5C5F"/>
</svg>
