<svg width="116" height="24" viewBox="0 0 116 24" fill="none" xmlns="http://www.w3.org/2000/svg">
<rect width="24" height="24" rx="4" fill="url(#paint0_linear_609_22283)"/>
<path d="M11.3513 10.0407C11.3513 11.191 10.7654 11.9621 9.66 12.2654C10.6855 12.493 11.2182 13.1629 11.2182 14.1489V15.5899C11.2182 15.9691 11.2714 16.2851 11.3513 16.5H9.95299C9.83313 16.2598 9.7399 15.9817 9.7399 15.5899V14.1994C9.7399 13.0492 8.9808 12.7458 7.96866 12.7458H5.47826V16.5H4V7.5H8.31492C10.2726 7.5 11.3513 8.47331 11.3513 10.0407ZM9.87308 10.1292C9.87308 9.19382 9.36701 8.5618 8.1551 8.5618H5.47826V11.684H8.1551C9.36701 11.684 9.87308 11.0646 9.87308 10.1292Z" fill="#CCE88E"/>
<path d="M20 10.3188C20 12.1517 18.7215 13.125 16.6972 13.125H14.1269V16.5H12.6487V7.5H16.6972C18.7215 7.5 20 8.48596 20 10.3188ZM18.5217 10.3188C18.5217 9.14326 17.8159 8.5618 16.4975 8.5618H14.1269V12.0632H16.4975C17.8159 12.0632 18.5217 11.4944 18.5217 10.3188Z" fill="#CCE88E"/>
<path d="M42.962 8.802C42.962 10.44 42.17 11.538 40.676 11.97C42.062 12.294 42.782 13.248 42.782 14.652V16.704C42.782 17.244 42.854 17.694 42.962 18H41.072C40.91 17.658 40.784 17.262 40.784 16.704V14.724C40.784 13.086 39.758 12.654 38.39 12.654H35.024V18H33.026V5.184H38.858C41.504 5.184 42.962 6.57 42.962 8.802ZM40.964 8.928C40.964 7.596 40.28 6.696 38.642 6.696H35.024V11.142H38.642C40.28 11.142 40.964 10.26 40.964 8.928ZM46.7135 18H44.7155V5.184H46.7135V18ZM53.4024 18.18C49.9284 18.18 48.2724 16.668 48.2724 13.932H50.1984C50.3964 15.786 51.2064 16.668 53.4384 16.668C55.6344 16.668 56.5344 15.75 56.5344 14.328C56.5344 13.392 56.0124 12.726 53.9784 12.438L52.1964 12.168C49.5504 11.79 48.5964 10.836 48.5964 8.892C48.5964 6.606 50.1624 5.004 53.4024 5.004C56.6424 5.004 58.2084 6.57 58.2084 9.072H56.3364C56.1384 7.38 55.2924 6.516 53.3484 6.516C51.4404 6.516 50.5944 7.416 50.5944 8.784C50.5944 9.756 51.0444 10.278 52.8444 10.53L54.6264 10.8C57.1644 11.16 58.5324 12.132 58.5324 14.202C58.5324 16.632 56.8764 18.18 53.4024 18.18ZM62.0943 18H60.0963V5.184H62.0943V18ZM74.5613 18H72.2033L67.9193 11.97L66.0113 13.914V18H64.0133V5.184H66.0113V11.502L72.0233 5.184H74.3813L69.2333 10.494L74.5613 18ZM90.212 9.198C90.212 11.808 88.484 13.194 85.748 13.194H82.274V18H80.276V5.184H85.748C88.484 5.184 90.212 6.588 90.212 9.198ZM88.214 9.198C88.214 7.524 87.26 6.696 85.478 6.696H82.274V11.682H85.478C87.26 11.682 88.214 10.872 88.214 9.198ZM101.708 8.802C101.708 10.44 100.916 11.538 99.4221 11.97C100.808 12.294 101.528 13.248 101.528 14.652V16.704C101.528 17.244 101.6 17.694 101.708 18H99.8181C99.6561 17.658 99.5301 17.262 99.5301 16.704V14.724C99.5301 13.086 98.5041 12.654 97.1361 12.654H93.7701V18H91.7721V5.184H97.6041C100.25 5.184 101.708 6.57 101.708 8.802ZM99.7101 8.928C99.7101 7.596 99.0261 6.696 97.3881 6.696H93.7701V11.142H97.3881C99.0261 11.142 99.7101 10.26 99.7101 8.928ZM114.154 18H111.976L105.37 7.992V18H103.462V5.184H105.64L112.246 15.192V5.184H114.154V18Z" fill="#22493E"/>
<defs>
<linearGradient id="paint0_linear_609_22283" x1="12" y1="0" x2="12" y2="24" gradientUnits="userSpaceOnUse">
<stop stop-color="#224D4C"/>
<stop offset="1" stop-color="#224D4C"/>
</linearGradient>
</defs>
</svg>
