<svg width="16" height="16" viewBox="0 0 16 16" fill="none" xmlns="http://www.w3.org/2000/svg">
<g clip-path="url(#clip0_660_23739)">
<path d="M7.66671 9.34076C6.30229 9.27725 4.92227 9.60391 3.71842 10.3207C2.77524 10.8823 0.302284 12.0291 1.80848 13.4641C2.54425 14.165 3.3637 14.6663 4.39395 14.6663H8.00004" stroke="#5C5C5F" stroke-linecap="round" stroke-linejoin="round"/>
<path d="M10.3334 4.33301C10.3334 5.98986 8.99023 7.33301 7.33337 7.33301C5.67652 7.33301 4.33337 5.98986 4.33337 4.33301C4.33337 2.67615 5.67652 1.33301 7.33337 1.33301C8.99023 1.33301 10.3334 2.67615 10.3334 4.33301Z" stroke="#5C5C5F"/>
<path d="M12 13.8089V14.666M12 13.8089C11.2289 13.8089 10.5494 13.4301 10.1509 12.8549M13.8493 10.4773C14.0849 10.8174 14.2223 11.2262 14.2223 11.666C14.2223 12.1058 14.0848 12.5147 13.8492 12.8549C13.4507 13.4301 12.7712 13.8089 12 13.8089M12 9.52316C12.7713 9.52316 13.4508 9.90202 13.8493 10.4773M12 9.52316C11.2288 9.52316 10.5493 9.90202 10.1508 10.4773M12 9.52316V8.66602M14.6667 9.95173L13.8493 10.4773M9.33366 13.3803L10.1509 12.8549M9.33337 9.95173L10.1508 10.4773M14.6664 13.3803L13.8492 12.8549M10.1508 10.4773C9.9152 10.8174 9.77782 11.2262 9.77782 11.666C9.77782 12.1058 9.91523 12.5147 10.1509 12.8549" stroke="#5C5C5F" stroke-linecap="round"/>
</g>
<defs>
<clipPath id="clip0_660_23739">
<rect width="16" height="16" fill="white"/>
</clipPath>
</defs>
</svg>
