<svg width="16" height="16" viewBox="0 0 16 16" fill="none" xmlns="http://www.w3.org/2000/svg">
<path d="M1.66663 7.33301C1.66663 9.21863 1.66663 10.1614 2.25241 10.7472C2.8382 11.333 3.78101 11.333 5.66663 11.333H10.3333C12.2189 11.333 13.1617 11.333 13.7475 10.7472C14.3333 10.1614 14.3333 9.21863 14.3333 7.33301V5.33301C14.3333 3.44739 14.3333 2.50458 13.7475 1.91879C13.1617 1.33301 12.2189 1.33301 10.3333 1.33301H5.66663C3.78101 1.33301 2.8382 1.33301 2.25241 1.91879C1.66663 2.50458 1.66663 3.44739 1.66663 5.33301V7.33301Z" stroke="#5C5C5F"/>
<path d="M7.5 14.6663C7.5 14.9425 7.72386 15.1663 8 15.1663C8.27614 15.1663 8.5 14.9425 8.5 14.6663L8 14.6663L7.5 14.6663ZM8 11.333L7.5 11.333L7.5 14.6663L8 14.6663L8.5 14.6663L8.5 11.333L8 11.333Z" fill="#5C5C5F"/>
<path d="M4.66663 14.666L8.00001 12.666L11.3333 14.666" stroke="#5C5C5F" stroke-linecap="round" stroke-linejoin="round"/>
</svg>
