<svg width="16" height="16" viewBox="0 0 16 16" fill="none" xmlns="http://www.w3.org/2000/svg">
<path d="M10.3333 8.00033C10.3333 9.28899 9.28862 10.3337 7.99996 10.3337C6.71129 10.3337 5.66663 9.28899 5.66663 8.00033C5.66663 6.71166 6.71129 5.66699 7.99996 5.66699C9.28862 5.66699 10.3333 6.71166 10.3333 8.00033Z" stroke="#5C5C5F"/>
<path d="M13.8603 6.10134C14.3978 7.02784 14.6666 7.49109 14.6666 8C14.6666 8.50891 14.3978 8.97216 13.8603 9.89866L12.5778 12.1092C12.0425 13.032 11.7748 13.4934 11.3345 13.7467C10.8943 14 10.36 14 9.29147 14L6.70837 14C5.6398 14 5.10552 14 4.6653 13.7467C4.22508 13.4934 3.95738 13.032 3.42199 12.1092L2.13953 9.89866C1.60201 8.97216 1.33325 8.50891 1.33325 8C1.33325 7.49109 1.60201 7.02784 2.13953 6.10134L3.42199 3.89081C3.95738 2.96798 4.22508 2.50656 4.6653 2.25328C5.10552 2 5.6398 2 6.70837 2L9.29147 2C10.36 2 10.8943 2 11.3345 2.25328C11.7748 2.50656 12.0425 2.96798 12.5778 3.89081L13.8603 6.10134Z" stroke="#5C5C5F"/>
</svg>
