<svg width="16" height="16" viewBox="0 0 16 16" fill="none" xmlns="http://www.w3.org/2000/svg">
<path d="M6.08951 1.66699C4.31199 1.70749 3.27376 1.8767 2.56439 2.58361C1.94354 3.20231 1.736 4.07203 1.66663 5.46699M9.91041 1.66699C11.6879 1.70749 12.7262 1.8767 13.4355 2.58361C14.0564 3.20231 14.2639 4.07203 14.3333 5.46699M9.91041 14.3337C11.6879 14.2932 12.7262 14.124 13.4355 13.417C14.0564 12.7983 14.2639 11.9286 14.3333 10.5337M6.08951 14.3337C4.31199 14.2932 3.27376 14.124 2.56439 13.417C1.94354 12.7983 1.736 11.9286 1.66663 10.5337" stroke="#5C5C5F" stroke-linecap="round" stroke-linejoin="round"/>
<path d="M5 11.3337C6.55447 9.70554 9.42882 9.62888 11 11.3337M9.6634 6.33366C9.6634 7.25413 8.91614 8.00033 7.99435 8.00033C7.07257 8.00033 6.32531 7.25413 6.32531 6.33366C6.32531 5.41318 7.07257 4.66699 7.99435 4.66699C8.91614 4.66699 9.6634 5.41318 9.6634 6.33366Z" stroke="#5C5C5F" stroke-linecap="round"/>
</svg>
