<svg width="88" height="88" viewBox="0 0 88 88" fill="none" xmlns="http://www.w3.org/2000/svg">
<circle cx="44" cy="44" r="44" fill="#FFE5DF"/>
<circle cx="43.5" cy="43.5" r="35.5" fill="#FFB1A0"/>
<circle cx="44.5" cy="44.5" r="27.5" fill="#FF7D60"/>
<path d="M36.2083 41.2967C39.0243 36.3139 40.4323 33.8226 42.3643 33.1812C43.4272 32.8284 44.5721 32.8284 45.635 33.1812C47.5671 33.8226 48.9751 36.3139 51.791 41.2967C54.607 46.2795 56.0149 48.7709 55.5926 50.8009C55.3602 51.9177 54.7878 52.9306 53.9572 53.6946C52.4475 55.0833 49.6316 55.0833 43.9997 55.0833C38.3678 55.0833 35.5518 55.0833 34.0421 53.6946C33.2116 52.9306 32.6391 51.9177 32.4068 50.8009C31.9844 48.7709 33.3924 46.2795 36.2083 41.2967Z" stroke="white" stroke-width="1.5"/>
<path d="M44.2819 49.8333V45.1667C44.2819 44.6167 44.2819 44.3417 44.111 44.1709C43.9402 44 43.6652 44 43.1152 44" stroke="white" stroke-width="1.5" stroke-linecap="round" stroke-linejoin="round"/>
<path d="M43.99 40.5H44.0005" stroke="white" stroke-width="2" stroke-linecap="round" stroke-linejoin="round"/>
</svg>
