<svg width="30" height="30" viewBox="0 0 30 30" fill="none" xmlns="http://www.w3.org/2000/svg">
<rect width="30" height="30" rx="4" fill="#EBF2F0"/>
<path d="M9.20086 20.1336C9.36952 21.3862 10.4071 22.3676 11.6697 22.4257C12.7322 22.4745 13.8115 22.5 15 22.5C16.1885 22.5 17.2678 22.4745 18.3303 22.4257C19.5929 22.3676 20.6305 21.3862 20.7991 20.1336C20.9092 19.316 21 18.4782 21 17.625C21 16.7718 20.9092 15.934 20.7991 15.1164C20.6305 13.8638 19.5929 12.8824 18.3303 12.8243C17.2678 12.7755 16.1885 12.75 15 12.75C13.8115 12.75 12.7322 12.7755 11.6697 12.8243C10.4071 12.8824 9.36952 13.8638 9.20086 15.1164C9.09078 15.934 9 16.7718 9 17.625C9 18.4782 9.09078 19.316 9.20086 20.1336Z" stroke="#397968"/>
<path d="M11.625 12.75L11.625 10.875C11.625 9.01104 13.136 7.5 15 7.5C16.864 7.5 18.375 9.01104 18.375 10.875V12.75" stroke="#397968" stroke-linecap="round" stroke-linejoin="round"/>
<path d="M14.9971 17.625H15.0038" stroke="#397968" stroke-width="2" stroke-linecap="round" stroke-linejoin="round"/>
</svg>
